<?xml version="1.0" encoding="utf-8"?>
<!-- Generator: Adobe Illustrator 28.0.0, SVG Export Plug-In . SVG Version: 6.00 Build 0)  -->
<svg version="1.1" id="Layer_1" xmlns="http://www.w3.org/2000/svg" xmlns:xlink="http://www.w3.org/1999/xlink" x="0px" y="0px"
	 viewBox="0 0 200 50" style="enable-background:new 0 0 200 50;" xml:space="preserve">
<style type="text/css">
	.st0{fill:none;}
	.st1{fill:#D8C5B6;}
	.st2{display:none;}
</style>
<g id="Slice_List">
	
		<rect id="_x3C_Slice_x3E__00000173857224072613777280000004867749526832771460_" x="-48.5" y="-1" class="st0" width="296.4" height="33.6"/>
	
		<rect id="_x3C_Slice_x3E__00000134964985809881571800000010158019411390291841_" x="-48.5" y="32.6" class="st0" width="77.8" height="16.2"/>
	
		<rect id="_x3C_Slice_x3E__00000147940314969969099710000015792269697941183144_" x="164.7" y="32.6" class="st0" width="83.1" height="16.2"/>
	
		<rect id="_x3C_Slice_x3E__00000085964840353345882610000007019990492900795839_" x="29.3" y="32.6" class="st0" width="25.2" height="16.2"/>
	
		<rect id="_x3C_Slice_x3E__00000061438796015333328750000015498870735108379069_" x="54.5" y="32.6" class="st0" width="2.4" height="16.2"/>
	
		<rect id="_x3C_Slice_x3E__00000172433576234261019510000005837632811806132905_" x="56.9" y="32.6" class="st0" width="25.2" height="16.2"/>
	
		<rect id="_x3C_Slice_x3E__00000103957407050846605940000005315561617630447795_" x="82" y="32.6" class="st0" width="2.4" height="16.2"/>
	
		<rect id="_x3C_Slice_x3E__00000005952305912898900320000011657917284233042857_" x="84.4" y="32.6" class="st0" width="25.2" height="16.2"/>
	
		<rect id="_x3C_Slice_x3E__00000112608680536502296770000015921759556737985979_" x="109.6" y="32.6" class="st0" width="2.4" height="16.2"/>
	
		<rect id="_x3C_Slice_x3E__00000132047882738524894170000010457342785604642971_" x="112" y="32.6" class="st0" width="25.2" height="16.2"/>
	
		<rect id="_x3C_Slice_x3E__00000022548036242144640230000016475663824525906578_" x="137.2" y="32.6" class="st0" width="2.4" height="16.2"/>
	<rect id="_x3C_Slice_x3E_" x="139.5" y="32.6" class="st0" width="25.2" height="16.2"/>
</g>
<g id="Layer_29_xA0_Image_00000147203517147720603110000002768130199607931555_">
	<path class="st1" d="M95.2,2.2c-1.2,0-1.6,1.1-2.1,2.1L92,6.4h-4.1c-1.7,0-3.1,1.4-3.1,3.1v10.3c0,1.7,1.4,3.1,3.1,3.1h20.7
		c1.7,0,3.1-1.4,3.1-3.1V9.4c0-1.7-1.4-3.1-3.1-3.1h-4.1l-1.1-2.1c-0.5-1.1-0.9-2.1-2.1-2.1L95.2,2.2L95.2,2.2z M88,8.4
		c0.6,0,1.1,0.5,1.1,1.1s-0.5,1.1-1.1,1.1s-1.1-0.5-1.1-1.1C87,8.9,87.4,8.4,88,8.4z M98.3,8.4c3.4,0,6.2,2.8,6.2,6.2
		s-2.8,6.2-6.2,6.2s-6.2-2.8-6.2-6.2S94.9,8.4,98.3,8.4z M98.3,11.5c-1.7,0-3.1,1.4-3.1,3.1s1.4,3.1,3.1,3.1s3.1-1.4,3.1-3.1
		S100.1,11.5,98.3,11.5z"/>
</g>
<g id="Group_5_00000121258158313032509380000011649554887594751396_">
	<g id="THIS_IS_LOY_WORL">
		<path class="st1" d="M15.1,31.9H8.8v15.5H7.9V31.9H1.7V31h13.5L15.1,31.9L15.1,31.9z"/>
		<path class="st1" d="M30.2,31v16.4h-0.9v-8H17.8v8h-0.9V31h0.9v7.6h11.6V31H30.2L30.2,31z"/>
		<path class="st1" d="M33.9,31v16.4H33V31H33.9z"/>
		<path class="st1" d="M48.8,35.2h-0.9c-0.2-2-2.2-3.7-5.5-3.7c-3.2,0-5.1,1.4-5.1,3.3c0,2,1.7,3,5.4,3.8c4.3,0.9,6.1,2.2,6.1,4.7
			c0,2.8-2.8,4.5-6.4,4.5c-3.6,0-6.2-2-6.5-4.9h0.9c0.2,2.4,2.4,4.1,5.7,4.1c3.2,0,5.5-1.4,5.5-3.5c0-2.2-1.8-3.1-5.8-4.1
			c-3.8-0.9-5.7-2.1-5.7-4.5c0-2.5,2.4-4.1,6-4.1C46,30.6,48.6,32.5,48.8,35.2z"/>
		<path class="st1" d="M56.3,31v16.4h-0.9V31H56.3z"/>
		<path class="st1" d="M71.1,35.2h-0.9c-0.2-2-2.2-3.7-5.5-3.7c-3.2,0-5.1,1.4-5.1,3.3c0,2,1.7,3,5.4,3.8c4.3,0.9,6.1,2.2,6.1,4.7
			c0,2.8-2.8,4.5-6.4,4.5s-6.2-2-6.5-4.9h0.9c0.2,2.4,2.4,4.1,5.7,4.1c3.2,0,5.5-1.4,5.5-3.5c0-2.2-1.8-3.1-5.8-4.1
			c-3.8-0.9-5.7-2.1-5.7-4.5c0-2.5,2.4-4.1,6-4.1C68.4,30.6,70.9,32.5,71.1,35.2z"/>
		<path class="st1" d="M81,30.7v13.6h8.4v3.3H77.2V30.7H81z"/>
		<path class="st1" d="M89.3,39.2c0-5.1,3.9-8.9,9.1-8.9c5.3,0,9.1,3.7,9.1,8.9s-3.9,8.9-9.1,8.9C93.2,48,89.3,44.3,89.3,39.2z
			 M103.8,39.2c0-3.2-2.3-5.5-5.3-5.5s-5.3,2.3-5.3,5.5s2.3,5.5,5.3,5.5S103.8,42.4,103.8,39.2z"/>
		<path class="st1" d="M117.4,42.4v5.3h-3.7v-5.3l-6.3-11.6h4.3l4.1,8l4-8h4L117.4,42.4z"/>
		<path class="st1" d="M147.5,31l-4.7,16.4H142l-4.3-15.2l-4.3,15.2h-0.8L127.9,31h0.8l4.3,15.1l4.3-15.1h0.9l4.3,15.1l4.3-15.1
			C146.7,31,147.5,31,147.5,31z"/>
		<path class="st1" d="M147.1,39.2c0-4.9,3.2-8.5,7.6-8.5c4.3,0,7.6,3.6,7.6,8.5s-3.2,8.5-7.6,8.5S147.1,44.1,147.1,39.2z
			 M161.5,39.2c0-4.5-2.9-7.7-6.8-7.7c-3.9,0-6.8,3.2-6.8,7.7s2.9,7.7,6.8,7.7C158.7,46.9,161.5,43.7,161.5,39.2z"/>
		<path class="st1" d="M173.6,47.4l-3.8-6.4c-0.5,0.1-1,0.1-1.5,0.1H164v6.3h-0.8V31h5.1c3.7,0,5.8,2,5.8,5.1c0,2.4-1.3,4.1-3.5,4.7
			l3.9,6.6L173.6,47.4L173.6,47.4z M173.3,36.1c0-2.8-2-4.2-5.3-4.2h-4.2v8.4h4.2C171.3,40.3,173.3,38.8,173.3,36.1z"/>
		<path class="st1" d="M175.6,31v15.5h8.7v0.9h-9.5V31H175.6z"/>
		<path class="st1" d="M197.6,47.6h-4.9c-5.3,0-8.1-3.2-8.1-8.1s2.9-8.2,8.1-8.2h4.9V47.6L197.6,47.6z M196.8,46.7V32.1h-4.1
			c-4.5,0-7.2,2.7-7.2,7.4s2.8,7.3,7.2,7.3L196.8,46.7L196.8,46.7z"/>
	</g>
	<g id="D" class="st2">
	</g>
</g>
</svg>
